<?xml version="1.0" encoding="UTF-8"?>
<svg id="Layer_1" data-name="Layer 1" xmlns="http://www.w3.org/2000/svg" viewBox="0 0 4000 4000">
  <defs>
    <style>
      .cls-1, .cls-2 {
        stroke-width: 0px;
      }

      .cls-2 {
        fill: #f15a29;
      }
    </style>
  </defs>
  <g>
    <g>
      <path class="cls-1" d="m1315.64,2116.03c-6-13.28-14.91-25.26-26.75-35.97-6.71-5.99-13.99-10.84-21.83-14.56-7.56-3.85-16.12-6.63-25.68-8.35-8.85-1.85-18.98-2.78-30.39-2.78h-50.3c-9.58,0-18.25,3.88-24.52,10.16-6.28,6.27-10.16,14.95-10.16,24.52,0,19.15,15.53,34.67,34.67,34.67h50.08v-.21c10.85.42,18.9,2,24.2,4.7,6.42,3.43,11.27,8.14,14.55,14.13,3.56,5.86,5.43,11.93,5.57,18.19-.14,6.29-2.01,12.28-5.57,17.99-3.28,5.99-8.13,10.7-14.55,14.13-1.44.71-3.08,1.35-4.92,1.92h-68.61c-9.89,0-18.87,4.01-25.35,10.51-6.49,6.48-10.5,15.43-10.5,25.34,0,19.81,16.05,35.86,35.85,35.86h49.55c11.41,0,21.54-.92,30.39-2.78,9.56-1.72,18.12-4.49,25.68-8.35,7.84-3.71,15.12-8.57,21.83-14.56,11.84-10.7,20.76-22.61,26.75-35.75,5.86-13.27,8.78-28.04,8.78-44.31s-2.92-31.11-8.78-44.51Z"/>
      <path class="cls-1" d="m1466.33,2266.26v.02h2.14c-.72,0-1.43,0-2.14-.02Z"/>
      <path class="cls-2" d="m1538.4,2349.27h0c-13.2,13.26-34.66,13.29-47.89.05h0c-13.23-13.23-13.21-34.69.05-47.89h0c13.22-13.16,34.59-13.13,47.78.05h0c13.19,13.19,13.21,34.56.05,47.78Z"/>
      <path class="cls-1" d="m1553.76,2054.16c19.8,0,35.85,16.05,35.85,35.85v58.98c0,11.84-.93,22.33-2.78,31.46-1.86,9.84-4.77,18.69-8.77,26.53-3.86,8-8.85,15.49-14.99,22.48-11.12,12.28-23.54,21.48-37.24,27.62-12.56,5.57-26.4,8.63-41.52,9.21h-15.84c-.72,0-1.44-.01-2.15-.02-16.28-.24-31.12-3.3-44.52-9.18-13.7-6.14-26.11-15.34-37.25-27.62-6.13-6.98-11.12-14.48-14.98-22.48-3.99-7.84-6.92-16.69-8.78-26.53-1.86-9.13-2.78-19.62-2.78-31.46v-133.67c0-19.8,16.05-35.85,35.85-35.85h0c19.8,0,35.85,16.05,35.85,35.85v133.45h-.21c.43,11.13,2.06,19.47,4.92,25.04,3.43,6.57,8.28,11.56,14.55,14.98,6.09,3.83,12.52,5.75,19.3,5.79h.19c8.82-.01,13.95-.08,15.41-.22,5.14-.71,10.06-2.56,14.77-5.57,6.28-3.42,11.12-8.41,14.55-14.98,2.85-5.57,4.42-13.91,4.7-25.04v-58.76c0-19.8,16.05-35.85,35.85-35.85h0Z"/>
      <path class="cls-2" d="m1895.21,2004.02h0c-13.2,13.26-34.66,13.29-47.89.06h0c-13.24-13.23-13.21-34.7.05-47.9h0c13.22-13.16,34.59-13.13,47.78.06h0c13.19,13.19,13.21,34.56.05,47.78Z"/>
      <path class="cls-1" d="m2236.98,2054.16c19.8,0,35.85,16.05,35.85,35.85v58.98c0,11.84-.93,22.33-2.78,31.46-1.86,9.84-4.77,18.69-8.77,26.53-3.86,8-8.85,15.49-14.99,22.48-11.12,12.28-23.54,21.48-37.24,27.62-12.56,5.57-26.41,8.63-41.52,9.21h0c-13.24,0-23.98-10.74-23.98-23.98v-17.34c-1.14,1.43-2.28,2.86-3.42,4.28-11.13,12.27-23.55,21.48-37.25,27.61-12.55,5.57-26.4,8.64-41.52,9.21h-1.28v.22h0c-12.76,0-23.11-10.35-23.11-23.11v-17.98c-1.15,1.43-2.28,2.78-3.43,4.07-11.12,12.27-23.54,21.48-37.24,27.61-12.56,5.57-26.41,8.64-41.52,9.21h-9v.22h0c-12.76,0-23.11-10.35-23.11-23.11v-17.77c-1.15,1.43-2.28,2.78-3.42,4.07-11.13,12.28-23.55,21.48-37.25,27.62-12.56,5.57-26.4,8.63-41.52,9.21h-7.91c-21.28,0-38.53-17.25-38.53-38.53h0c-3.71,4.42-7.85,8.7-12.42,12.84-6.71,5.99-13.99,10.84-21.83,14.55-7.57,3.86-16.13,6.64-25.69,8.35-8.85,1.86-18.98,2.78-30.4,2.78h-50.72c-19.15,0-34.67-15.52-34.67-34.67v-2.36c0-19.15,15.52-34.67,34.67-34.67h69.78c1.86-.57,3.49-1.21,4.92-1.93,6.42-3.43,11.27-8.13,14.55-14.13,3.57-5.7,5.42-11.7,5.57-17.98-.15-6.28-2-12.34-5.57-18.19-3.28-5.99-8.13-10.7-14.55-14.13-5.29-2.71-13.34-4.28-24.19-4.71v.22h-50.08c-19.15,0-34.67-15.52-34.67-34.67h0c0-19.15,15.52-34.67,34.67-34.67h50.29c11.42,0,21.55.93,30.4,2.78,9.56,1.71,18.12,4.49,25.69,8.34,7.84,3.71,15.12,8.57,21.83,14.55,11.84,10.71,20.76,22.7,26.75,35.97,5.85,13.41,8.78,28.25,8.78,44.52,0,8.54-.81,16.68-2.43,24.44-1.04,4.95,2.72,9.6,7.78,9.6h0c10.13,0,15.98-.07,17.56-.22,5.14-.71,10.06-2.56,14.77-5.57,6.28-3.42,11.12-8.41,14.55-14.98,2.85-5.57,4.42-13.91,4.7-25.04v-58.76c0-19.8,16.05-35.85,35.85-35.85h0c19.8,0,35.85,16.05,35.85,35.85v58.98c0,11.84-.93,22.33-2.77,31.46-.05.25-.1.51-.15.76-1.45,7.07,4.26,13.55,11.45,12.94h.04c5.13-.72,10.06-2.58,14.76-5.57,6.28-3.43,11.13-8.42,14.55-14.98,2.86-5.57,4.43-13.92,4.71-25.05v-58.75c0-19.8,16.05-35.85,35.85-35.85h0c19.8,0,35.85,16.05,35.85,35.85v58.96c0,11.84-.93,22.33-2.78,31.46-.55,2.67-1.16,5.3-1.84,7.88-.89,3.39,1.99,6.58,5.45,6.04h.03c5.14-.72,10.06-2.58,14.77-5.57,6.28-3.43,11.13-8.42,14.55-14.98,2.86-5.57,4.42-13.92,4.71-25.05v-58.75c0-19.8,16.05-35.85,35.85-35.85h0c19.8,0,35.85,16.05,35.85,35.85v58.96c0,11.84-.93,22.33-2.78,31.46-.49,2.88-1.11,5.69-1.84,8.43-.84,3.16,1.78,6.16,5.02,5.7h.03c5.14-.71,10.06-2.57,14.76-5.57,6.29-3.42,11.13-8.41,14.56-14.98,2.85-5.57,4.42-13.91,4.7-25.04v-58.76c0-19.8,16.05-35.85,35.85-35.85h0Z"/>
    </g>
    <g>
      <path class="cls-2" d="m451.07,2313.71l-.05.05c-13.18,13.18-34.55,13.18-47.73,0l-.05-.05c-13.16-13.16-34.49-13.18-47.67-.05l-.22.22c-13.19,13.13-34.51,13.1-47.67-.05l-.11-.11c-13.16-13.16-13.19-34.49-.05-47.68l.16-.16c13.15-13.21,34.52-13.26,47.73-.11l.16.16c13.19,13.13,34.52,13.1,47.67-.05h0c13.2-13.2,34.61-13.18,47.78.05l.11.11c13.13,13.19,13.11,34.52-.05,47.68Z"/>
      <path class="cls-2" d="m403.07,2382.9h0c-13.19,13.19-34.57,13.21-47.79.05h0c-13.26-13.2-13.28-34.66-.05-47.89h0c13.23-13.23,34.69-13.21,47.89.05h0c13.16,13.22,13.14,34.6-.05,47.79Z"/>
      <path class="cls-2" d="m697.64,2313.71l-.05.05c-13.18,13.18-34.55,13.18-47.73,0l-.05-.05c-13.16-13.16-34.49-13.18-47.67-.05l-.22.22c-13.19,13.13-34.52,13.1-47.67-.05l-.11-.11c-13.16-13.16-13.18-34.49-.05-47.67l.16-.16c13.15-13.21,34.52-13.26,47.73-.11l.16.16c13.19,13.13,34.52,13.1,47.67-.05h0c13.2-13.2,34.61-13.18,47.78.05l.11.11c13.13,13.19,13.11,34.52-.05,47.68Z"/>
      <path class="cls-2" d="m1042.05,1970.53l-.05.05c-13.18,13.18-34.55,13.18-47.73,0l-.05-.05c-13.16-13.16-34.49-13.18-47.67-.05l-.22.22c-13.19,13.13-34.52,13.1-47.67-.05l-.11-.11c-13.16-13.16-13.18-34.49-.05-47.67l.16-.16c13.15-13.21,34.52-13.26,47.73-.11l.16.16c13.19,13.13,34.52,13.1,47.67-.05h0c13.2-13.2,34.61-13.18,47.78.05l.11.11c13.13,13.19,13.11,34.52-.05,47.68Z"/>
      <path class="cls-1" d="m683.9,2019.99c19.8,0,35.85,16.05,35.85,35.85v58.96c0,11.85-.93,22.34-2.78,31.46-1.86,9.85-4.79,18.7-8.78,26.54-3.86,8-8.85,15.49-14.98,22.48-11.13,12.27-23.55,21.48-37.25,27.62-12.55,5.56-26.4,8.63-41.52,9.19h-274.18c-57.8,0-101.18-14.51-130.14-43.56-14.51-14.54-25.56-29.87-33.16-46.01-11.1-23.56,6.49-50.63,32.53-50.63h.94c14.45,0,27.26,8.87,32.8,22.21,12.75,30.72,40.81,46.07,84.18,46.07l124.57.21v-104.35c0-19.8,16.05-35.85,35.85-35.85h0c19.8,0,35.85,16.05,35.85,35.85v104.35h8.56c52.96,0,80.21-.06,81.76-.21,5.14-.71,10.06-2.57,14.77-5.57,6.28-3.42,11.13-8.41,14.55-14.98,2.86-5.57,4.42-13.92,4.71-25.04v-58.76c0-19.8,16.05-35.85,35.85-35.85h0Z"/>
      <path class="cls-1" d="m999.61,2019.99c19.8,0,35.85,16.05,35.85,35.85v58.96c0,11.85-.93,22.34-2.77,31.46-1.87,9.85-4.79,18.7-8.78,26.54-3.86,8-8.85,15.49-14.98,22.48-11.13,12.27-23.55,21.48-37.25,27.62-12.56,5.56-26.4,8.63-41.52,9.19h-62.72c-.43,7.71-1.28,14.77-2.56,21.19-1.86,9.84-4.79,18.69-8.78,26.54-3.85,7.99-8.85,15.48-14.98,22.48-11.13,12.27-23.54,21.48-37.24,27.61-12.56,5.57-26.41,8.63-41.53,9.21h0c-9.93,0-17.97-8.05-17.97-17.97v-35.97c0-9.52,7.42-17.43,16.92-17.94.25-.01.46-.03.62-.04,5.14-.71,10.06-2.56,14.77-5.56,6.28-3.43,11.13-8.42,14.55-14.99,1.86-3.71,3.43-8.56,4.71-14.55v-176.05c0-19.8,16.05-35.85,35.85-35.85h0c19.8,0,35.85,16.05,35.85,35.85v89.36c0,8.27,6.71,14.98,14.98,14.98h0c29.95-.01,45.65-.07,47.09-.21,5.14-.71,10.06-2.57,14.77-5.57,6.28-3.42,11.12-8.41,14.55-14.98,2.85-5.57,4.42-13.92,4.7-25.04v-58.76c0-19.8,16.05-35.85,35.85-35.85h0Z"/>
    </g>
  </g>
  <g>
    <g>
      <path class="cls-2" d="m3479.03,1291.3c-52.93,10.76-106.12,26.06-158.15,45.5-7.04,2.64-14.07,5.35-21.07,8.13-5.68,2.26-11.32,4.56-16.96,6.91-6.83,2.86-13.64,5.78-20.41,8.78-12.23,5.41-24.37,11.05-36.39,16.92-24.5,11.94-48.53,24.8-71.95,38.5-11.2,6.55-22.25,13.29-33.15,20.21-4.51,2.87-9,5.76-13.46,8.69-19.74,12.96-38.99,26.57-57.68,40.76-29.7,22.53-57.98,46.55-84.52,71.78-11.95,11.36-24.07,23.46-36.24,36.34-104.67,110.73-212.76,278.19-243.63,513.71l-118.13-324.55c18.01-92.65,50.39-174.84,92.85-247.1,11.16-19.01,23.02-37.32,35.5-54.95,1.13-1.6,2.26-3.18,3.4-4.76,9.44-13.15,19.24-25.9,29.34-38.3,29.1-35.68,60.79-68.23,94.29-97.74,15.24-13.46,30.87-26.28,46.8-38.48,1.91-1.46,3.82-2.91,5.73-4.35,67.24-50.65,141.9-90.62,221-119.41l45.55-16.58c16.45-5.99,33.11-10.31,49.77-13.04.74-.12,1.48-.24,2.22-.34,21.17-3.31,42.33-4.07,63.15-2.45.04,0,.09,0,.13.01,92.28,7.19,177.32,60.94,221.99,145.84Z"/>
      <path class="cls-2" d="m3559.3,1504.44l67.34,185.02c-20.43-21.81-41.99-42.79-64.5-62.74-82.09-72.7-173.49-129.51-271.65-168.84-11.61-4.65-23.72-9.21-36.28-13.6-19.02-6.65-39.11-12.92-60.19-18.57,32.06-17.49,64.5-33.07,96.93-46.81,10.45-4.43,20.91-8.67,31.35-12.71,88.28,34.61,168.03,83.04,237,138.25Z"/>
      <path class="cls-2" d="m3494.22,1325.64l47.31,129.99c-57.08-41.57-117.82-76.13-181.53-103.24,44.51-15.37,88.44-27.27,130.74-35.82,1.21,2.99,2.37,6.01,3.48,9.07Z"/>
      <path class="cls-1" d="m3233.95,1465.66c-23.83-8.09-48.22-15.14-73.15-21.05-59.8,35.45-117.73,77.71-171.13,127.14-150.01,138.8-264.22,334.03-283.38,593.08l138.01,379.17c43,118.13,158.52,188.89,277.98,180.3.72,3.38,1.68,6.76,2.9,10.1,7.06,19.41,21.33,34.11,38.67,42.21,17.36,8.09,37.79,9.56,57.2,2.49,19.41-7.06,34.12-21.32,42.21-38.67,8.09-17.35,9.56-37.78,2.49-57.19l310.66-113.07c7.06,19.41,21.32,34.12,38.68,42.2,17.34,8.09,37.78,9.56,57.19,2.49,19.4-7.06,34.12-21.32,42.21-38.67,8.08-17.35,9.56-37.78,2.49-57.19-1.22-3.34-2.65-6.55-4.27-9.6,97.04-70.21,140.05-198.67,97.05-316.8l-157.04-431.47c-97.42-119.9-242.47-235.68-418.78-295.47Zm-357.82,569.6c-2.34.93-4.74,1.38-7.12,1.42-8.43.19-16.45-4.81-19.72-13.12-4.18-10.63,1.05-22.66,11.69-26.84l171.34-67.38c10.64-4.19,22.66,1.05,26.84,11.69,4.18,10.64-1.06,22.65-11.68,26.82l-171.36,67.4Zm611.44,192.37c-56.59,43.39-124,66.97-193.89,68.51-17.02.37-34.17-.57-51.36-2.83-87.78-11.59-165.83-56.71-219.78-127.08-9.28-12.09-6.99-29.42,5.1-38.7,12.1-9.27,29.43-6.98,38.7,5.11,92.76,120.99,266.65,143.95,387.63,51.18,12.12-9.28,29.43-6.98,38.71,5.1,9.27,12.1,6.98,29.42-5.11,38.7Z"/>
      <path class="cls-2" d="m2889.1,1253.26c-28.04,19.61-54.83,40.68-80.3,63.16-8.37,7.37-16.58,14.89-24.66,22.56-6.58,6.25-13.21,12.76-19.88,19.53-27.03,27.39-54.57,59-80.91,95.06-.04.05-.08.1-.11.16-9.24,12.68-18.34,25.91-27.21,39.69-4,6.22-7.95,12.54-11.86,18.99-38.33,63.31-71.56,137.73-93.08,224.17l-21.75-59.76c-37.98-104.36-8.84-216.78,65.38-289.98.19-.19.39-.39.58-.58,14.75-14.46,31.28-27.38,49.4-38.39.82-.51,1.65-1,2.47-1.49,14.52-8.61,30.06-16.01,46.51-22l195.41-71.12Z"/>
      <path class="cls-1" d="m3178.9,930.77l78.14,214.7s-.09,0-.13-.01c-20.82-1.61-41.98-.86-63.15,2.45l-71.53-196.52c-19.59-53.84-66.54-89.98-119.46-98.46,2.8,30.23-14.91,59.71-44.76,70.58l-277,100.82c-29.85,10.87-62.37-.33-79.66-25.29-35.09,40.51-47.82,98.37-28.22,152.21l71.57,196.63c-18.12,11-34.64,23.92-49.4,38.39-.19.19-.39.39-.58.58l-78.25-214.98c-19.45-53.43-16.92-111.22,7.1-162.74,12.88-27.62,31.11-51.67,53.49-71.03-9.1-33.92,9.11-69.75,42.72-81.98l277-100.82c33.61-12.23,70.59,3.51,85.42,35.34,29.59.45,59.02,7.15,86.64,20.03,51.52,24.03,90.6,66.67,110.05,120.1Z"/>
    </g>
    <path class="cls-2" d="m2551.09,1736.58c-6.24,45.25-30.21,83.69-63.94,109.26l-.05.04c-33.75,25.58-77.26,38.28-122.53,32.04,12.46-90.52,95.95-153.78,186.46-141.34.02,0,.03,0,.05,0Z"/>
    <path class="cls-1" d="m2551.09,1736.58c-33.18,31.39-75.93,46.38-118.24,45.21h-.06c-42.33-1.16-84.22-18.48-115.62-51.68,66.36-62.81,171.07-59.92,233.89,6.43.01.01.02.02.04.03Z"/>
  </g>
</svg>