<?xml version="1.0" encoding="UTF-8"?>
<svg id="Layer_1" data-name="Layer 1" xmlns="http://www.w3.org/2000/svg" viewBox="0 0 4000 4000">
  <defs>
    <style>
      .cls-1, .cls-2 {
        stroke-width: 0px;
      }

      .cls-2 {
        fill: #f15a29;
      }
    </style>
  </defs>
  <g>
    <g>
      <path class="cls-1" d="m1609.44,2885.2c-6.73-14.9-16.73-28.35-30.02-40.36-7.53-6.72-15.7-12.16-24.5-16.34-8.49-4.32-18.09-7.44-28.82-9.37-9.93-2.07-21.29-3.12-34.1-3.12h-56.45c-10.75,0-20.48,4.35-27.51,11.4-7.04,7.03-11.4,16.77-11.4,27.51,0,21.48,17.42,38.91,38.91,38.91h56.19v-.23c12.17.47,21.21,2.24,27.16,5.27,7.2,3.85,12.64,9.14,16.32,15.85,4,6.57,6.09,13.38,6.25,20.42-.16,7.05-2.25,13.78-6.25,20.19-3.68,6.72-9.13,12-16.32,15.85-1.61.8-3.45,1.52-5.53,2.16h-76.99c-11.1,0-21.17,4.5-28.44,11.79-7.28,7.27-11.78,17.32-11.78,28.43,0,22.23,18.01,40.24,40.23,40.24h55.61c12.81,0,24.17-1.04,34.1-3.12,10.73-1.93,20.33-5.04,28.82-9.37,8.8-4.16,16.96-9.62,24.5-16.34,13.29-12,23.29-25.38,30.02-40.12,6.57-14.89,9.85-31.47,9.85-49.72s-3.28-34.91-9.85-49.95Z"/>
      <path class="cls-1" d="m1778.53,3053.78v.02h2.4c-.81,0-1.6-.01-2.4-.02Z"/>
      <path class="cls-2" d="m1859.41,3146.93h0c-14.81,14.88-38.89,14.91-53.74.06h0c-14.85-14.85-14.82-38.93.06-53.74h0c14.83-14.77,38.82-14.74,53.62.06h0c14.8,14.8,14.83,38.78.06,53.62Z"/>
      <path class="cls-1" d="m1876.64,2815.77c22.22,0,40.23,18.01,40.23,40.23v66.18c0,13.29-1.04,25.06-3.12,35.31-2.08,11.04-5.36,20.98-9.84,29.77-4.33,8.97-9.93,17.38-16.82,25.22-12.48,13.78-26.42,24.1-41.79,30.99-14.1,6.25-29.62,9.69-46.6,10.33h-17.77c-.81,0-1.61-.01-2.41-.02-18.27-.27-34.92-3.71-49.95-10.31-15.37-6.89-29.31-17.21-41.8-30.99-6.88-7.84-12.48-16.25-16.81-25.22-4.48-8.8-7.77-18.73-9.85-29.77-2.08-10.25-3.12-22.02-3.12-35.31v-150c0-22.22,18.01-40.23,40.23-40.23h0c22.22,0,40.23,18.01,40.23,40.23v149.75h-.23c.48,12.49,2.32,21.85,5.52,28.1,3.85,7.37,9.29,12.97,16.33,16.81,6.83,4.29,14.05,6.46,21.65,6.49h.21c9.9-.01,15.65-.09,17.29-.25,5.77-.8,11.29-2.88,16.58-6.25,7.04-3.84,12.48-9.44,16.33-16.81,3.19-6.25,4.96-15.61,5.28-28.1v-65.93c0-22.22,18.01-40.23,40.23-40.23h0Z"/>
      <path class="cls-2" d="m2259.8,2759.51h0c-14.81,14.88-38.89,14.91-53.74.06h0c-14.85-14.85-14.82-38.93.06-53.75h0c14.83-14.76,38.82-14.73,53.62.06h0c14.8,14.8,14.83,38.79.06,53.62Z"/>
      <path class="cls-1" d="m2643.32,2815.77c22.22,0,40.23,18.01,40.23,40.23v66.18c0,13.29-1.04,25.06-3.12,35.31-2.08,11.04-5.36,20.98-9.84,29.77-4.33,8.97-9.93,17.38-16.82,25.22-12.48,13.78-26.42,24.1-41.79,30.99-14.1,6.25-29.63,9.69-46.6,10.33h0c-14.86,0-26.91-12.05-26.91-26.91v-19.45c-1.28,1.6-2.56,3.21-3.84,4.81-12.49,13.77-26.43,24.1-41.8,30.98-14.09,6.25-29.62,9.7-46.6,10.33h-1.44v.25h0c-14.32,0-25.94-11.61-25.94-25.94v-20.18c-1.29,1.6-2.56,3.12-3.85,4.56-12.48,13.77-26.42,24.1-41.79,30.98-14.1,6.25-29.63,9.7-46.6,10.33h-10.1v.25h0c-14.32,0-25.94-11.61-25.94-25.94v-19.95c-1.29,1.6-2.56,3.12-3.84,4.56-12.49,13.78-26.43,24.1-41.8,30.99-14.1,6.25-29.62,9.69-46.6,10.33h-8.88c-23.88,0-43.24-19.36-43.24-43.24h0c-4.16,4.96-8.81,9.77-13.93,14.41-7.53,6.73-15.7,12.17-24.5,16.33-8.49,4.33-18.1,7.45-28.83,9.37-9.93,2.08-21.3,3.12-34.11,3.12h-56.91c-21.49,0-38.91-17.42-38.91-38.91v-2.64c0-21.49,17.42-38.91,38.91-38.91h78.3c2.08-.64,3.92-1.36,5.52-2.16,7.21-3.85,12.65-9.13,16.33-15.85,4-6.4,6.08-13.13,6.25-20.18-.16-7.04-2.25-13.85-6.25-20.41-3.69-6.73-9.12-12-16.33-15.85-5.93-3.04-14.97-4.81-27.14-5.29v.25h-56.2c-21.49,0-38.91-17.42-38.91-38.91h0c0-21.49,17.42-38.91,38.91-38.91h56.43c12.81,0,24.18,1.04,34.11,3.12,10.73,1.92,20.33,5.04,28.83,9.36,8.8,4.16,16.96,9.62,24.5,16.33,13.29,12.01,23.29,25.47,30.02,40.36,6.56,15.04,9.85,31.7,9.85,49.95,0,9.58-.91,18.72-2.73,27.42-1.16,5.56,3.06,10.77,8.73,10.77h0c11.37,0,17.93-.08,19.7-.25,5.77-.8,11.29-2.88,16.58-6.25,7.04-3.84,12.48-9.44,16.33-16.81,3.19-6.25,4.96-15.61,5.28-28.1v-65.93c0-22.22,18.01-40.23,40.23-40.23h0c22.22,0,40.23,18.01,40.23,40.23v66.18c0,13.29-1.04,25.06-3.11,35.31-.06.29-.11.57-.17.85-1.63,7.93,4.78,15.21,12.85,14.52h.05c5.76-.81,11.29-2.89,16.57-6.25,7.04-3.85,12.49-9.45,16.33-16.81,3.21-6.25,4.97-15.62,5.29-28.11v-65.92c0-22.22,18.01-40.23,40.23-40.23h0c22.22,0,40.23,18.01,40.23,40.23v66.17c0,13.29-1.04,25.06-3.12,35.31-.62,3-1.31,5.94-2.07,8.84-1,3.81,2.23,7.38,6.12,6.78h.03c5.77-.81,11.29-2.89,16.58-6.25,7.04-3.85,12.49-9.45,16.33-16.81,3.21-6.25,4.96-15.62,5.29-28.11v-65.92c0-22.22,18.01-40.23,40.23-40.23h0c22.22,0,40.23,18.01,40.23,40.23v66.17c0,13.29-1.04,25.06-3.12,35.31-.55,3.23-1.24,6.39-2.06,9.46-.95,3.55,2,6.92,5.64,6.39h.03c5.77-.8,11.29-2.88,16.57-6.25,7.05-3.84,12.49-9.44,16.34-16.81,3.19-6.25,4.96-15.61,5.28-28.1v-65.93c0-22.22,18.01-40.23,40.23-40.23h0Z"/>
    </g>
    <g>
      <path class="cls-2" d="m1858.41,3735.66l-.06.06c-14.79,14.79-38.77,14.79-53.56,0l-.06-.06c-14.77-14.77-38.7-14.79-53.5-.06l-.25.25c-14.8,14.73-38.73,14.7-53.49-.06l-.12-.12c-14.77-14.77-14.8-38.7-.06-53.5l.18-.18c14.76-14.82,38.73-14.87,53.56-.12l.18.18c14.8,14.73,38.73,14.7,53.5-.06h0c14.81-14.81,38.84-14.79,53.62.06l.12.12c14.74,14.8,14.71,38.74-.06,53.5Z"/>
      <path class="cls-2" d="m1804.55,3813.3h0c-14.8,14.8-38.79,14.83-53.63.06h0c-14.88-14.82-14.91-38.9-.06-53.74h0c14.85-14.85,38.93-14.82,53.74.06h0c14.77,14.83,14.74,38.82-.06,53.63Z"/>
      <path class="cls-2" d="m2135.11,3735.66l-.06.06c-14.79,14.79-38.77,14.79-53.56,0l-.06-.06c-14.77-14.77-38.7-14.79-53.5-.06l-.24.24c-14.8,14.73-38.73,14.7-53.5-.06l-.12-.12c-14.77-14.77-14.79-38.7-.06-53.5l.18-.18c14.76-14.82,38.74-14.88,53.56-.12l.18.18c14.8,14.73,38.73,14.7,53.5-.06h0c14.81-14.81,38.84-14.79,53.62.06l.12.12c14.74,14.8,14.71,38.74-.06,53.5Z"/>
      <path class="cls-2" d="m2521.58,3350.55l-.06.06c-14.79,14.79-38.77,14.79-53.56,0l-.06-.06c-14.77-14.77-38.7-14.79-53.5-.06l-.24.24c-14.8,14.73-38.73,14.7-53.5-.06l-.12-.12c-14.77-14.77-14.79-38.7-.06-53.5l.18-.18c14.76-14.82,38.74-14.88,53.56-.12l.18.18c14.8,14.73,38.73,14.7,53.5-.06h0c14.81-14.81,38.84-14.79,53.62.06l.12.12c14.74,14.8,14.71,38.74-.06,53.5Z"/>
      <path class="cls-1" d="m2119.69,3406.06c22.22,0,40.23,18.01,40.23,40.23v66.17c0,13.3-1.04,25.07-3.12,35.31-2.08,11.06-5.37,20.99-9.85,29.78-4.33,8.97-9.93,17.38-16.81,25.22-12.49,13.77-26.43,24.1-41.8,30.99-14.09,6.24-29.62,9.69-46.6,10.32h-307.67c-64.86,0-113.54-16.28-146.03-48.88-16.28-16.31-28.68-33.52-37.21-51.63-12.46-26.44,7.28-56.82,36.5-56.82h1.06c16.21,0,30.59,9.95,36.81,24.92,14.3,34.47,45.79,51.7,94.46,51.7l139.79.23v-117.09c0-22.22,18.01-40.23,40.23-40.23h0c22.22,0,40.23,18.01,40.23,40.23v117.09h9.6c59.43,0,90.01-.07,91.75-.23,5.77-.8,11.29-2.89,16.58-6.25,7.04-3.84,12.49-9.44,16.33-16.81,3.21-6.25,4.96-15.62,5.29-28.1v-65.93c0-22.22,18.01-40.23,40.23-40.23h0Z"/>
      <path class="cls-1" d="m2473.96,3406.06c22.22,0,40.23,18.01,40.23,40.23v66.17c0,13.3-1.04,25.07-3.11,35.31-2.09,11.06-5.37,20.99-9.85,29.78-4.33,8.97-9.93,17.38-16.81,25.22-12.49,13.77-26.43,24.1-41.8,30.99-14.1,6.24-29.62,9.69-46.6,10.32h-70.38c-.48,8.66-1.44,16.58-2.88,23.78-2.08,11.04-5.37,20.98-9.85,29.78-4.32,8.96-9.93,17.37-16.81,25.22-12.49,13.77-26.42,24.1-41.79,30.98-14.1,6.25-29.63,9.69-46.61,10.33h0c-11.14,0-20.17-9.03-20.17-20.17v-40.36c0-10.68,8.33-19.56,18.99-20.13.28-.02.52-.03.7-.05,5.77-.8,11.29-2.88,16.58-6.24,7.04-3.85,12.49-9.45,16.33-16.82,2.08-4.16,3.85-9.6,5.29-16.33v-197.55c0-22.22,18.01-40.23,40.23-40.23h0c22.22,0,40.23,18.01,40.23,40.23v100.28c0,9.28,7.53,16.81,16.81,16.81h0c33.61-.01,51.23-.08,52.84-.23,5.77-.8,11.29-2.89,16.58-6.25,7.04-3.84,12.48-9.44,16.33-16.81,3.19-6.25,4.96-15.62,5.28-28.1v-65.93c0-22.22,18.01-40.23,40.23-40.23h0Z"/>
    </g>
  </g>
  <g>
    <g>
      <path class="cls-2" d="m2395.31,781.72c-59.39,12.07-119.08,29.24-177.47,51.06-7.9,2.96-15.79,6-23.64,9.13-6.37,2.53-12.71,5.11-19.03,7.76-7.67,3.21-15.3,6.49-22.9,9.85-13.72,6.07-27.35,12.4-40.84,18.98-27.49,13.4-54.45,27.83-80.73,43.2-12.56,7.35-24.96,14.92-37.2,22.68-5.07,3.22-10.1,6.46-15.1,9.75-22.15,14.54-43.75,29.81-64.72,45.73-33.33,25.29-65.06,52.23-94.84,80.55-13.41,12.74-27.01,26.33-40.67,40.78-117.46,124.26-238.75,312.17-273.39,576.46l-132.56-364.2c20.21-103.97,56.55-196.2,104.2-277.29,12.52-21.33,25.83-41.88,39.84-61.67,1.26-1.79,2.53-3.57,3.81-5.35,10.59-14.75,21.59-29.07,32.93-42.97,32.66-40.03,68.22-76.56,105.81-109.68,17.11-15.1,34.64-29.49,52.52-43.18,2.14-1.64,4.28-3.26,6.43-4.88,75.45-56.83,159.24-101.68,248-133.99l51.12-18.61c18.46-6.72,37.16-11.57,55.85-14.64.83-.13,1.66-.27,2.49-.38,23.75-3.72,47.5-4.56,70.86-2.75.04,0,.1,0,.14.01,103.55,8.07,198.98,68.39,249.1,163.65Z"/>
      <path class="cls-2" d="m2485.39,1020.89l75.57,207.63c-22.92-24.48-47.12-48.02-72.38-70.4-92.12-81.58-194.69-145.33-304.84-189.47-13.03-5.22-26.62-10.34-40.72-15.26-21.35-7.46-43.88-14.5-67.54-20.84,35.98-19.63,72.38-37.11,108.77-52.53,11.73-4.97,23.47-9.72,35.18-14.26,99.07,38.84,188.55,93.18,265.95,155.14Z"/>
      <path class="cls-2" d="m2412.36,820.24l53.09,145.87c-64.05-46.65-132.21-85.43-203.71-115.85,49.94-17.25,99.24-30.6,146.71-40.19,1.36,3.36,2.66,6.75,3.91,10.18Z"/>
      <path class="cls-1" d="m2120.3,977.37c-26.74-9.07-54.11-16.99-82.09-23.62-67.1,39.78-132.11,87.2-192.03,142.67-168.33,155.76-296.5,374.83-317.99,665.53l154.86,425.48c48.25,132.56,177.88,211.96,311.94,202.32.81,3.79,1.89,7.58,3.25,11.33,7.93,21.78,23.94,38.28,43.4,47.36,19.48,9.08,42.41,10.72,64.19,2.8,21.78-7.93,38.29-23.93,47.36-43.4,9.08-19.47,10.73-42.4,2.8-64.18l348.61-126.88c7.93,21.78,23.93,38.29,43.41,47.36,19.46,9.08,42.4,10.73,64.18,2.8s38.29-23.93,47.36-43.4c9.07-19.47,10.73-42.4,2.8-64.18-1.36-3.75-2.97-7.35-4.79-10.77,108.89-78.78,157.16-222.94,108.91-355.5l-176.23-484.18c-109.32-134.54-272.09-264.47-469.93-331.56Zm-401.52,639.18c-2.62,1.04-5.32,1.54-7.99,1.6-9.46.21-18.46-5.39-22.13-14.72-4.69-11.93,1.17-25.43,13.12-30.11l192.27-75.61c11.94-4.7,25.43,1.17,30.12,13.12,4.69,11.94-1.19,25.42-13.11,30.1l-192.29,75.63Zm686.13,215.87c-63.51,48.69-139.15,75.15-217.58,76.88-19.1.42-38.34-.64-57.63-3.18-98.5-13.01-186.09-63.64-246.63-142.6-10.41-13.57-7.85-33.02,5.72-43.43,13.58-10.4,33.02-7.84,43.43,5.73,104.09,135.77,299.22,161.53,434.98,57.43,13.6-10.42,33.02-7.84,43.44,5.73,10.4,13.58,7.83,33.01-5.73,43.43Z"/>
      <path class="cls-2" d="m1733.32,739.03c-31.46,22.01-61.53,45.65-90.11,70.88-9.39,8.27-18.61,16.71-27.67,25.32-7.38,7.02-14.83,14.31-22.31,21.91-30.33,30.74-61.24,66.21-90.79,106.68-.04.06-.09.12-.13.17-10.37,14.23-20.58,29.07-30.53,44.54-4.49,6.97-8.93,14.07-13.31,21.31-43.01,71.05-80.3,154.56-104.45,251.56l-24.41-67.06c-42.62-117.1-9.92-243.26,73.37-325.4.22-.22.44-.44.66-.65,16.56-16.23,35.1-30.73,55.43-43.08.92-.57,1.85-1.12,2.78-1.67,16.3-9.67,33.73-17.97,52.19-24.69l219.28-79.81Z"/>
      <path class="cls-1" d="m2058.52,377.14l87.69,240.93s-.1,0-.14-.01c-23.36-1.81-47.11-.97-70.86,2.75l-80.27-220.53c-21.99-60.41-74.67-100.97-134.05-110.48,3.14,33.92-16.73,67-50.23,79.2l-310.83,113.13c-33.5,12.19-69.99-.38-89.39-28.38-39.38,45.46-53.66,110.39-31.67,170.8l80.31,220.65c-20.33,12.35-38.87,26.84-55.43,43.08-.22.22-.44.44-.66.65l-87.8-241.24c-21.82-59.95-18.99-124.8,7.97-182.62,14.45-30.99,34.92-57.98,60.03-79.71-10.21-38.06,10.22-78.26,47.94-91.99l310.83-113.13c37.72-13.73,79.21,3.93,95.85,39.66,33.2.5,66.23,8.02,97.22,22.47,57.82,26.96,101.67,74.82,123.49,134.77Z"/>
    </g>
    <path class="cls-2" d="m1354.02,1281.38c-7,50.77-33.9,93.91-71.75,122.6l-.05.04c-37.87,28.71-86.7,42.96-137.5,35.95,13.99-101.57,107.67-172.57,209.24-158.6.02,0,.04,0,.06,0Z"/>
    <path class="cls-1" d="m1354.02,1281.38c-37.23,35.22-85.21,52.04-132.68,50.74h-.07c-47.5-1.3-94.51-20.74-129.75-57.99,74.47-70.48,191.97-67.24,262.46,7.22.01.01.03.03.04.04Z"/>
  </g>
</svg>