<?xml version="1.0" encoding="UTF-8"?>
<svg id="Layer_1" data-name="Layer 1" xmlns="http://www.w3.org/2000/svg" viewBox="0 0 4000 4000">
  <defs>
    <style>
      .cls-1, .cls-2 {
        stroke-width: 0px;
      }

      .cls-2 {
        fill: #f15a29;
      }
    </style>
  </defs>
  <g>
    <path class="cls-2" d="m2679.87,1118.93c-98.3,19.98-197.08,48.4-293.72,84.5-13.08,4.9-26.13,9.93-39.13,15.11-10.54,4.19-21.03,8.46-31.5,12.84-12.69,5.3-25.33,10.73-37.91,16.3-22.71,10.04-45.26,20.52-67.59,31.42-45.5,22.18-90.12,46.06-133.62,71.49-20.79,12.17-41.32,24.69-61.56,37.54-8.38,5.32-16.71,10.7-25,16.14-36.66,24.07-72.41,49.34-107.12,75.69-55.17,41.85-107.68,86.44-156.97,133.31-22.19,21.09-44.71,43.57-67.3,67.49-194.39,205.65-395.14,516.66-452.46,954.06l-219.39-602.76c33.45-172.08,93.58-324.72,172.45-458.92,20.72-35.3,42.76-69.32,65.94-102.06,2.09-2.96,4.19-5.91,6.31-8.85,17.53-24.42,35.73-48.11,54.5-71.12,54.05-66.26,112.91-126.71,175.11-181.53,28.31-24.99,57.34-48.8,86.92-71.46,3.54-2.71,7.09-5.4,10.64-8.08,124.88-94.06,263.54-168.29,410.45-221.76l84.6-30.79c30.56-11.12,61.49-19.14,92.44-24.22,1.38-.22,2.74-.45,4.12-.64,39.31-6.15,78.62-7.55,117.28-4.56.07,0,.16.01.24.02,171.39,13.35,329.32,113.19,412.28,270.85Z"/>
    <path class="cls-2" d="m2828.94,1514.76l125.07,343.63c-37.94-40.51-77.98-79.48-119.8-116.51-152.46-135.02-322.21-240.52-504.51-313.57-21.57-8.64-44.06-17.11-67.39-25.26-35.33-12.34-72.63-23.99-111.78-34.49,59.54-32.49,119.79-61.43,180.02-86.94,19.41-8.23,38.84-16.09,58.23-23.61,163.96,64.28,312.06,154.22,440.15,256.76Z"/>
    <path class="cls-2" d="m2708.08,1182.69l87.87,241.42c-106-77.2-218.82-141.39-337.15-191.74,82.66-28.55,164.25-50.64,242.81-66.52,2.25,5.56,4.4,11.17,6.47,16.84Z"/>
    <path class="cls-1" d="m2224.71,1442.74c-44.25-15.02-89.56-28.11-135.86-39.09-111.06,65.84-218.65,144.33-317.82,236.13-278.59,257.78-490.72,620.36-526.29,1101.47l256.3,704.19c79.85,219.4,294.4,350.81,516.27,334.85,1.33,6.28,3.12,12.55,5.38,18.75,13.12,36.05,39.62,63.36,71.82,78.39,32.24,15.02,70.18,17.75,106.23,4.63,36.05-13.12,63.36-39.6,78.39-71.82,15.03-32.22,17.75-70.17,4.63-106.22l576.96-210c13.12,36.05,39.6,63.36,71.84,78.38,32.21,15.03,70.17,17.75,106.22,4.63,36.03-13.12,63.36-39.6,78.39-71.82,15.01-32.22,17.75-70.17,4.63-106.22-2.26-6.21-4.92-12.16-7.93-17.83,180.22-130.39,260.1-368.97,180.25-588.36l-291.66-801.33c-180.93-222.68-450.32-437.7-777.75-548.74Zm-664.54,1057.86c-4.34,1.72-8.81,2.55-13.22,2.64-15.66.34-30.55-8.92-36.62-24.36-7.77-19.75,1.94-42.08,21.72-49.84l318.21-125.13c19.77-7.78,42.08,1.94,49.86,21.71,7.75,19.76-1.97,42.07-21.69,49.81l-318.25,125.17Zm1135.57,357.27c-105.11,80.58-230.29,124.38-360.1,127.24-31.61.69-63.45-1.05-95.39-5.26-163.02-21.53-307.98-105.33-408.17-236.01-17.23-22.46-12.99-54.65,9.47-71.87,22.48-17.22,54.65-12.97,71.88,9.49,172.28,224.7,495.22,267.34,719.9,95.05,22.5-17.24,54.65-12.97,71.89,9.48,17.22,22.48,12.96,54.64-9.49,71.88Z"/>
    <path class="cls-2" d="m1584.25,1048.28c-52.07,36.42-101.83,75.55-149.14,117.3-15.54,13.69-30.79,27.66-45.79,41.91-12.22,11.62-24.54,23.69-36.93,36.27-50.19,50.87-101.35,109.58-150.26,176.55-.07.1-.14.19-.21.29-17.16,23.56-34.06,48.11-50.53,73.71-7.42,11.54-14.77,23.29-22.02,35.26-71.19,117.58-132.9,255.79-172.87,416.33l-40.39-110.98c-70.54-193.81-16.41-402.6,121.43-538.55.36-.36.72-.72,1.09-1.08,27.4-26.86,58.09-50.85,91.74-71.29,1.52-.94,3.06-1.85,4.59-2.76,26.97-16,55.82-29.74,86.38-40.86l362.91-132.09Z"/>
    <path class="cls-1" d="m2122.46,449.34l145.13,398.74c-.07,0-.16-.01-.24-.02-38.66-3-77.97-1.6-117.28,4.56l-132.84-364.98c-36.39-99.99-123.58-167.11-221.86-182.86,5.2,56.14-27.69,110.89-83.14,131.07l-514.44,187.24c-55.44,20.18-115.83-.62-147.94-46.97-65.17,75.24-88.81,182.7-52.42,282.69l132.92,365.18c-33.65,20.44-64.34,44.43-91.74,71.29-.36.36-.72.72-1.09,1.08l-145.32-399.26c-36.11-99.22-31.43-206.55,13.19-302.24,23.92-51.29,57.79-95.96,99.35-131.92-16.9-62.99,16.91-129.53,79.34-152.25l514.44-187.24c62.43-22.72,131.1,6.51,158.64,65.63,54.96.83,109.61,13.28,160.9,37.2,95.69,44.62,168.27,123.83,204.38,223.05Z"/>
  </g>
  <path class="cls-2" d="m956.5,1945.9c-11.58,84.03-56.1,155.43-118.75,202.91l-.09.07c-62.68,47.51-143.49,71.1-227.56,59.5,23.15-168.11,178.19-285.61,346.3-262.49.03,0,.06,0,.09,0Z"/>
  <path class="cls-1" d="m956.5,1945.9c-61.61,58.3-141.02,86.13-219.6,83.97h-.11c-78.62-2.16-156.41-34.32-214.74-95.98,123.25-116.64,317.71-111.28,434.38,11.95.02.02.05.04.07.06Z"/>
</svg>