<?xml version="1.0" encoding="UTF-8"?>
<svg id="Layer_1" data-name="Layer 1" xmlns="http://www.w3.org/2000/svg" viewBox="0 0 4000 4000">
  <defs>
    <style>
      .cls-1, .cls-2 {
        stroke-width: 0px;
      }

      .cls-2 {
        fill: #f15a29;
      }
    </style>
  </defs>
  <g>
    <path class="cls-1" d="m873.89,985.8c-18.23-40.37-45.33-76.79-81.33-109.34-20.41-18.2-42.52-32.94-66.36-44.25-22.99-11.71-49.01-20.16-78.07-25.37-26.9-5.61-57.69-8.45-92.38-8.45h-152.91c-29.11,0-55.48,11.79-74.53,30.87-19.08,19.05-30.87,45.44-30.87,74.53,0,58.2,47.2,105.4,105.4,105.4h152.23v-.62c32.97,1.28,57.46,6.07,73.56,14.29,19.5,10.43,34.24,24.75,44.22,42.95,10.83,17.8,16.5,36.26,16.92,55.31-.43,19.11-6.1,37.33-16.92,54.68-9.98,18.2-24.72,32.51-44.22,42.95-4.37,2.15-9.35,4.11-14.97,5.84h-208.55c-30.08,0-57.35,12.19-77.05,31.95-19.73,19.7-31.92,46.92-31.92,77.02,0,60.21,48.79,109,108.97,109h150.64c34.7,0,65.48-2.81,92.38-8.45,29.06-5.22,55.08-13.66,78.07-25.37,23.84-11.28,45.95-26.05,66.36-44.25,36-32.51,63.1-68.74,81.33-108.68,17.8-40.34,26.68-85.24,26.68-134.68s-8.87-94.57-26.68-135.3Z"/>
    <path class="cls-1" d="m1331.96,1442.48v.06h6.49c-2.18,0-4.34-.03-6.49-.06Z"/>
    <path class="cls-2" d="m1551.04,1694.8h0c-40.13,40.31-105.36,40.39-145.58.17h0c-40.22-40.22-40.14-105.45.17-145.58h0c40.18-40,105.16-39.92,145.25.17h0c40.09,40.09,40.16,105.06.17,145.25Z"/>
    <path class="cls-1" d="m1597.71,797.73c60.19,0,108.98,48.79,108.98,108.98v179.27c0,36-2.82,67.88-8.46,95.64-5.64,29.92-14.51,56.82-26.65,80.65-11.73,24.31-26.91,47.09-45.57,68.32-33.81,37.33-71.56,65.28-113.2,83.95-38.19,16.92-80.24,26.24-126.22,27.98h-48.14c-2.19,0-4.37-.03-6.53-.06-49.5-.73-94.6-10.05-135.32-27.92-41.64-18.67-79.38-46.62-113.23-83.95-18.63-21.23-33.81-44.02-45.54-68.32-12.14-23.83-21.04-50.74-26.68-80.65-5.64-27.76-8.46-59.64-8.46-95.64v-406.34c0-60.19,48.79-108.98,108.98-108.98h0c60.19,0,108.98,48.79,108.98,108.98v405.67h-.63c1.3,33.85,6.27,59.2,14.96,76.12,10.43,19.97,25.16,35.14,44.24,45.54,18.51,11.63,38.06,17.49,58.66,17.59h.57c26.81-.03,42.4-.25,46.84-.67,15.62-2.15,30.58-7.8,44.91-16.92,19.08-10.39,33.81-25.57,44.24-45.54,8.65-16.92,13.44-42.28,14.29-76.12v-178.61c0-60.19,48.79-108.98,108.98-108.98h0Z"/>
    <path class="cls-2" d="m2635.68,645.31h0c-40.13,40.31-105.36,40.39-145.58.18h0c-40.23-40.22-40.16-105.47.17-145.6h0c40.18-39.99,105.16-39.91,145.25.17h0c40.09,40.09,40.17,105.07.17,145.25Z"/>
    <path class="cls-1" d="m3674.59,797.73c60.19,0,108.98,48.79,108.98,108.98v179.27c0,36-2.82,67.88-8.46,95.64-5.64,29.92-14.51,56.82-26.65,80.65-11.73,24.31-26.91,47.09-45.57,68.32-33.81,37.33-71.56,65.28-113.2,83.95-38.19,16.92-80.27,26.24-126.22,27.98h0c-40.26,0-72.89-32.63-72.89-72.89v-52.7c-3.45,4.34-6.94,8.68-10.39,13.02-33.85,37.3-71.59,65.28-113.23,83.92-38.16,16.92-80.24,26.27-126.22,27.98h-3.9v.67h0c-38.8,0-70.26-31.46-70.26-70.26v-54.67c-3.49,4.34-6.94,8.46-10.43,12.36-33.81,37.3-71.56,65.28-113.2,83.92-38.19,16.92-80.27,26.27-126.22,27.98h-27.35v.67h0c-38.8,0-70.26-31.46-70.26-70.26v-54.03c-3.49,4.34-6.94,8.46-10.39,12.36-33.85,37.33-71.59,65.28-113.23,83.95-38.19,16.92-80.24,26.24-126.22,27.98h-24.05c-64.69,0-117.13-52.44-117.13-117.13h0c-11.28,13.44-23.86,26.46-37.74,39.04-20.41,18.22-42.53,32.96-66.36,44.24-23.01,11.73-49.03,20.19-78.09,25.38-26.91,5.64-57.71,8.46-92.41,8.46h-154.17c-58.21,0-105.4-47.19-105.4-105.4v-7.16c0-58.21,47.19-105.4,105.4-105.4h212.11c5.64-1.74,10.62-3.68,14.96-5.86,19.52-10.43,34.26-24.72,44.24-42.94,10.84-17.33,16.48-35.56,16.92-54.67-.44-19.08-6.08-37.52-16.92-55.3-9.98-18.22-24.72-32.52-44.24-42.94-16.07-8.24-40.56-13.02-73.52-14.32v.67h-152.24c-58.21,0-105.4-47.19-105.4-105.4h0c0-58.21,47.19-105.4,105.4-105.4h152.88c34.7,0,65.5,2.82,92.41,8.46,29.06,5.2,55.08,13.66,78.09,25.35,23.83,11.28,45.95,26.05,66.36,44.24,36,32.55,63.1,68.99,81.32,109.33,17.78,40.75,26.68,85.88,26.68,135.32,0,25.95-2.46,50.71-7.4,74.29-3.15,15.05,8.28,29.18,23.66,29.18h0c30.8,0,48.58-.22,53.37-.67,15.62-2.15,30.58-7.8,44.91-16.92,19.08-10.39,33.81-25.57,44.24-45.54,8.65-16.92,13.44-42.28,14.29-76.12v-178.61c0-60.19,48.79-108.98,108.98-108.98h0c60.19,0,108.98,48.79,108.98,108.98v179.27c0,36-2.82,67.88-8.43,95.64-.15.77-.31,1.55-.47,2.32-4.41,21.49,12.95,41.2,34.81,39.34h.13c15.59-2.2,30.58-7.84,44.87-16.93,19.08-10.43,33.85-25.61,44.24-45.54,8.68-16.92,13.47-42.31,14.32-76.15v-178.58c0-60.19,48.79-108.98,108.98-108.98h0c60.19,0,108.98,48.79,108.98,108.98v179.24c0,36-2.82,67.88-8.46,95.64-1.67,8.12-3.54,16.1-5.6,23.95-2.71,10.31,6.04,20,16.58,18.37h.08c15.62-2.2,30.58-7.84,44.91-16.94,19.08-10.43,33.85-25.61,44.24-45.54,8.68-16.92,13.44-42.31,14.32-76.15v-178.58c0-60.19,48.79-108.98,108.98-108.98h0c60.19,0,108.98,48.79,108.98,108.98v179.24c0,36-2.82,67.88-8.46,95.64-1.5,8.76-3.37,17.3-5.59,25.63-2.57,9.61,5.42,18.73,15.27,17.32h.09c15.62-2.17,30.58-7.81,44.87-16.94,19.11-10.39,33.85-25.57,44.27-45.54,8.65-16.92,13.44-42.28,14.29-76.12v-178.61c0-60.19,48.79-108.98,108.98-108.98h0Z"/>
  </g>
  <g>
    <path class="cls-2" d="m1548.34,3289.63l-.17.17c-40.07,40.06-105.02,40.05-145.08,0l-.17-.17c-40-40-104.83-40.07-144.92-.17l-.67.66c-40.09,39.91-104.91,39.83-144.91-.16l-.33-.33c-40.01-40-40.08-104.84-.17-144.94l.5-.5c39.97-40.15,104.93-40.29,145.08-.32l.5.5c40.09,39.91,104.92,39.83,144.92-.17h0c40.13-40.13,105.21-40.06,145.24.16l.33.33c39.92,40.09,39.84,104.93-.17,144.94Z"/>
    <path class="cls-2" d="m1402.44,3499.94h0c-40.1,40.1-105.08,40.17-145.27.16h0c-40.31-40.13-40.38-105.37-.16-145.59h0c40.22-40.22,105.45-40.15,145.59.16h0c40.01,40.18,39.94,105.17-.16,145.27Z"/>
    <path class="cls-2" d="m2297.89,3289.63l-.17.17c-40.07,40.06-105.02,40.05-145.08,0l-.17-.17c-40-40-104.83-40.07-144.92-.17l-.66.66c-40.09,39.91-104.92,39.83-144.92-.17l-.32-.32c-40-40-40.07-104.83-.17-144.92l.49-.49c39.97-40.16,104.93-40.3,145.09-.33l.49.49c40.09,39.91,104.92,39.83,144.92-.17h0c40.13-40.13,105.21-40.06,145.24.16l.33.33c39.92,40.09,39.84,104.93-.17,144.94Z"/>
    <path class="cls-2" d="m3344.81,2246.4l-.17.17c-40.07,40.06-105.02,40.05-145.08,0l-.17-.17c-40-40-104.83-40.07-144.92-.17l-.66.66c-40.09,39.91-104.92,39.83-144.92-.17l-.32-.32c-40-40-40.07-104.83-.17-144.92l.49-.49c39.97-40.16,104.93-40.3,145.09-.33l.49.49c40.09,39.91,104.92,39.83,144.92-.17h0c40.13-40.13,105.21-40.06,145.24.16l.33.33c39.92,40.09,39.84,104.93-.17,144.94Z"/>
    <path class="cls-1" d="m2256.11,2396.77c60.19,0,108.98,48.79,108.98,108.98v179.24c0,36.03-2.82,67.91-8.46,95.64-5.64,29.95-14.55,56.85-26.68,80.68-11.73,24.31-26.91,47.09-45.54,68.33-33.85,37.3-71.59,65.28-113.23,83.95-38.16,16.89-80.24,26.24-126.22,27.95h-833.46c-175.69,0-307.56-44.11-395.59-132.4-44.1-44.19-77.7-90.81-100.81-139.85-33.74-71.62,19.71-153.92,98.89-153.92h2.87c43.92,0,82.87,26.96,99.71,67.52,38.75,93.38,124.05,140.05,255.9,140.05l378.67.63v-317.19c0-60.19,48.79-108.98,108.98-108.98h0c60.19,0,108.98,48.79,108.98,108.98v317.19h26.02c160.99,0,243.83-.19,248.55-.63,15.62-2.15,30.58-7.83,44.91-16.92,19.08-10.39,33.85-25.57,44.24-45.54,8.68-16.92,13.44-42.31,14.32-76.12v-178.61c0-60.19,48.79-108.98,108.98-108.98h0Z"/>
    <path class="cls-1" d="m3215.79,2396.77c60.19,0,108.98,48.79,108.98,108.98v179.24c0,36.03-2.82,67.91-8.43,95.64-5.67,29.95-14.55,56.85-26.68,80.68-11.73,24.31-26.91,47.09-45.54,68.33-33.85,37.3-71.59,65.28-113.23,83.95-38.19,16.89-80.24,26.24-126.22,27.95h-190.65c-1.3,23.45-3.9,44.91-7.8,64.43-5.64,29.92-14.55,56.82-26.68,80.68-11.69,24.28-26.91,47.06-45.54,68.33-33.85,37.3-71.56,65.28-113.2,83.92-38.19,16.92-80.27,26.24-126.26,27.98h0c-30.17,0-54.63-24.46-54.63-54.63v-109.33c0-28.93,22.56-53,51.45-54.54.77-.04,1.4-.08,1.89-.13,15.62-2.15,30.58-7.8,44.91-16.89,19.08-10.43,33.85-25.61,44.24-45.57,5.64-11.28,10.43-26.02,14.32-44.24v-535.16c0-60.19,48.79-108.98,108.98-108.98h0c60.19,0,108.98,48.79,108.98,108.98v271.65c0,25.15,20.39,45.54,45.54,45.54h0c91.05-.03,138.77-.22,143.15-.63,15.62-2.15,30.58-7.83,44.91-16.92,19.08-10.39,33.81-25.57,44.24-45.54,8.65-16.92,13.44-42.31,14.29-76.12v-178.61c0-60.19,48.79-108.98,108.98-108.98h0Z"/>
  </g>
</svg>