<?xml version="1.0" encoding="utf-8"?>
<!-- Generator: Adobe Illustrator 23.0.2, SVG Export Plug-In . SVG Version: 6.00 Build 0)  -->
<svg version="1.1" id="Layer_1" xmlns="http://www.w3.org/2000/svg" xmlns:xlink="http://www.w3.org/1999/xlink" x="0px" y="0px"
	 viewBox="0 0 60 60" style="enable-background:new 0 0 60 60;" xml:space="preserve">
<title>FLT-26278 Vaue Prop Icons as SVGs</title>
<g>
	<path d="M46.5,24.6V13.5H13.8v11.1l15.9-5.1h0.9L46.5,24.6z M57,28.8c0.2,0.7,0.3,1.4,0.3,2.1L52.2,48c-0.2,0.7-0.8,1.2-1.5,1.2
		c-3.3-0.3-6.4-1.8-8.7-4.2c-0.3-0.3-0.6-0.4-1-0.4c-0.4,0-0.8,0.1-1,0.4c-3,3-6.3,4.5-9.9,4.5c-3.8-0.2-7.3-1.8-10-4.5
		c-0.3-0.3-0.7-0.5-1.1-0.5c-0.4,0-0.7,0.2-1,0.5c-2.3,2.4-5.4,3.9-8.6,4.2c-0.6,0-1.1-0.4-1.5-1.2L2.7,30.9c-0.1-0.7,0-1.4,0.3-2.1
		c0.3-0.7,0.8-1.2,1.5-1.5l3.6-1.2V9.6c0-0.4,0.2-0.7,0.4-1c0.3-0.3,0.6-0.5,1.1-0.5h9.9c0.4,0,0.8-0.1,1.1-0.4
		C20.9,7.4,21,7,21,6.6v-5c0-0.4,0.1-0.9,0.4-1.2c0.3-0.3,0.7-0.4,1-0.4h15c0.4,0,0.7,0.2,1,0.4C38.8,0.7,39,1.1,39,1.5v5.1
		c0,0.4,0.1,0.8,0.4,1.1c0.3,0.3,0.7,0.4,1.1,0.4h9.9c0.7-0.1,1.4,0.4,1.5,1.1c0,0.1,0,0.2,0,0.4v16.5l3.7,1.2
		C56.2,27.6,56.7,28.1,57,28.8z"/>
	<path d="M51.8,54.6h3.7c0.7-0.1,1.4,0.4,1.5,1.1c0,0.1,0,0.3,0,0.4v2.4c0,0.4-0.1,0.8-0.4,1.1c-0.3,0.3-0.7,0.4-1.1,0.4h-3.9
		c-3.5-0.1-7-0.9-10.2-2.4c-0.3-0.3-0.8-0.4-1.1-0.1c0,0-0.1,0.1-0.1,0.1c-6.6,3-14.1,3-20.7,0c-0.2-0.3-0.7-0.4-1-0.2
		c-0.1,0.1-0.1,0.1-0.2,0.2C15.2,59.2,11.7,60,8.1,60H4.2c-1,0-1.5-0.5-1.5-1.5v-2.4c-0.1-0.7,0.4-1.4,1.1-1.5c0.1,0,0.2,0,0.4,0
		h4.2c3.6,0.1,7.2-1,10.2-3c0.3-0.3,0.8-0.3,1.5,0c3,2,6.4,3,10,3c3.6,0,7.1-1,10.1-3c0.3-0.3,0.8-0.3,1.5,0
		C44.7,53.5,48.2,54.5,51.8,54.6z"/>
</g>
</svg>
