<?xml version="1.0" encoding="utf-8"?>
<!-- Generator: Adobe Illustrator 23.0.2, SVG Export Plug-In . SVG Version: 6.00 Build 0)  -->
<svg version="1.1" xmlns="http://www.w3.org/2000/svg" xmlns:xlink="http://www.w3.org/1999/xlink" x="0px" y="0px"
	 viewBox="0 0 163 60" style="enable-background:new 0 0 163 60;" xml:space="preserve">
<style type="text/css">
	.st0{fill:#00AA6C;}
</style>
<g id="Layer_2">
</g>
<g id="Layer_1">
	<title>FLT-26278 Vaue Prop Icons as SVGs</title>
	<g>
		<path class="st0" d="M31,28.3c0,0.6,0,1.1,0,1.7c0.1,3.5-1.3,6.8-3.8,9.2c-2.3,2.5-5.7,3.9-9.2,3.8c-0.4,0-0.9,0-1.3,0
			c-3.2-0.3-6.1-1.7-8.3-4.2c-4.7-5.1-4.5-13,0.4-17.9c2.3-2.5,5.7-3.9,9.2-3.8c3.2-0.1,6.3,1,8.7,3.2C29.1,22.2,30.6,25.1,31,28.3z
			"/>
		<path class="st0" d="M61.8,28.2c0.6,4.1-0.8,8.1-3.7,11c-2.3,2.5-5.6,3.9-9.1,3.8h-1.3c-3.1-0.3-6.2-1.7-8.3-4.2
			c-4.7-5.1-4.5-13,0.4-17.9c4.9-4.9,12.6-5.1,17.8-0.6C59.9,22.3,61.4,25.1,61.8,28.2z"/>
		<path class="st0" d="M93,28.2c0,0.6,0,1.1,0,1.7c0,7.2-5.8,13-13,13c-0.4,0-0.9,0-1.3-0.1c-7.1-0.7-12.3-7.1-11.6-14.3
			c0.3-3,1.6-5.7,3.7-7.8c4.9-4.9,12.6-5.1,17.8-0.6C91,22.2,92.6,25,93,28.2z"/>
		<path class="st0" d="M124,28.3c0,0.6,0,1.1,0,1.7c0,7.2-5.8,13-13,13c-0.4,0-0.9,0-1.3-0.1c-3.1-0.3-6.1-1.7-8.3-4.2
			c-4.8-5.3-4.5-13.6,0.9-18.3c2.3-2.2,5.5-3.4,8.7-3.4C117.6,17,123.1,21.8,124,28.3z"/>
		<path class="st0" d="M136.2,38.6c-1.4-1-2.5-2.2-3.4-3.7c-0.9-1.5-1.3-3.2-1.2-4.9c0-5.7,4.7-10.4,10.5-10.5
			c2.1,0,4.2,0.6,5.8,1.8c1.4,1,2.5,2.2,3.4,3.7c0.8,1.5,1.2,3.2,1.2,4.9c0,0.6-0.1,1.2-0.2,1.8l2.4,0.8c0.2-0.9,0.3-1.7,0.3-2.7
			c0-7.2-5.8-13-13-13s-13,5.8-13,13l0,0c0,3.3,1.1,6.3,3.4,8.7c2.1,2.3,5.1,3.9,8.2,4.2h1.3h0.4l-0.9-2.5
			C139.7,40.3,137.8,39.7,136.2,38.6z"/>
		<polygon points="154.2,41.5 158.7,37 155.8,36.1 153,35.1 142.2,31.5 145.4,41.3 146.4,44.1 147.7,48 152.1,43.5 159.6,51 
			161.7,49 		"/>
	</g>
</g>
</svg>
