<?xml version="1.0" encoding="utf-8"?>
<!-- Generator: Adobe Illustrator 23.0.2, SVG Export Plug-In . SVG Version: 6.00 Build 0)  -->
<svg version="1.1" id="Layer_1" xmlns="http://www.w3.org/2000/svg" xmlns:xlink="http://www.w3.org/1999/xlink" x="0px" y="0px"
	 viewBox="0 0 60 60" style="enable-background:new 0 0 60 60;" xml:space="preserve">
<style type="text/css">
	.st0{fill:none;}
</style>
<title>FLT-26278 Vaue Prop Icons as SVGs</title>
<g>
	<path class="st0" d="M43.4,13.1c0.5-0.5,0.8-1.3,0.7-2c0.1-0.7-0.2-1.5-0.7-2c-0.5-0.5-1.3-0.8-2-0.7c-0.7,0-1.4,0.2-1.9,0.7
		c-0.5,0.5-0.7,1.2-0.7,1.9c0,0.7,0.2,1.5,0.8,2c0.5,0.5,1.2,0.8,1.9,0.7C42.1,13.8,42.8,13.5,43.4,13.1z"/>
	<path d="M41.3,30.3c1.1-1.1,2.6-1.8,4.1-1.8H47c0.1,0,0.2,0,0.3,0l5.6-5.6c0.2-0.3,0.3-0.6,0.2-1L51.2,3c0-0.6-0.4-1-1.3-1.4
		L31.3,0c-0.4,0-0.7,0-1,0.2l-26.9,27c-0.5,0.5-0.5,1.3,0,1.9l20.8,20.6c0.5,0.5,1.3,0.5,1.9,0l13.7-13.6v-1.8
		C39.7,32.8,40.3,31.4,41.3,30.3z M38.8,11.1c0-0.7,0.2-1.4,0.7-1.9c0.5-0.5,1.2-0.8,1.9-0.7c0.7,0,1.5,0.2,2,0.7
		c0.5,0.5,0.8,1.3,0.7,2c0.1,0.7-0.2,1.5-0.7,2c-0.5,0.5-1.3,0.8-2,0.7c-0.7,0-1.4-0.3-1.9-0.9C39,12.5,38.8,11.8,38.8,11.1z"/>
	<path d="M46.2,60c-0.5,0-1-0.2-1.3-0.5L35,49.1c-0.7-0.7-0.7-1.8,0-2.6l1.1-1.2c0.7-0.7,1.9-0.7,2.6,0c0,0,0,0,0,0l4.9,5.1V34.3
		c0-0.5,0.2-1,0.5-1.3c0.3-0.4,0.8-0.6,1.3-0.5H47c0.5,0,1,0.2,1.3,0.5c0.3,0.3,0.5,0.8,0.5,1.3v16.2l4.9-5.1
		c0.3-0.4,0.8-0.6,1.3-0.6l0,0c0.5,0,0.9,0.2,1.2,0.5l1.2,1.2c0.3,0.3,0.5,0.8,0.5,1.3c0,0.5-0.2,0.9-0.5,1.3l-9.9,10.3
		C47.2,59.8,46.7,60,46.2,60z M55.8,48L55.8,48z M37.2,46.9L37.2,46.9z"/>
</g>
</svg>
